<?xml version="1.0" standalone="no"?>
<!DOCTYPE svg PUBLIC "-//W3C//DTD SVG 20010904//EN"
 "http://www.w3.org/TR/2001/REC-SVG-20010904/DTD/svg10.dtd">
<svg version="1.0" xmlns="http://www.w3.org/2000/svg"
 width="512.000000pt" height="512.000000pt" viewBox="0 0 512.000000 512.000000"
 preserveAspectRatio="xMidYMid meet">
<metadata>
Created by potrace 1.14, written by Peter Selinger 2001-2017
</metadata>
<g transform="translate(0.000000,512.000000) scale(0.100000,-0.100000)"
fill="#000000" stroke="none">
<path d="M2603 4658 c-32 -36 -209 -289 -227 -326 -20 -40 -47 -169 -39 -189
4 -11 -5 -9 -37 7 -117 60 -233 20 -379 -129 -146 -150 -240 -348 -237 -502 3
-136 72 -219 216 -260 25 -7 48 -15 52 -19 4 -3 -306 -5 -690 -5 -383 1 -710
-3 -727 -7 -61 -16 -70 -36 -70 -162 0 -107 2 -116 24 -140 13 -14 33 -26 45
-28 l21 -3 0 -1055 0 -1055 -242 -3 -243 -2 -34 -35 c-49 -49 -45 -95 19 -197
26 -43 55 -84 63 -90 12 -10 511 -14 2429 -15 2115 -3 2418 -1 2443 12 35 18
118 151 125 203 7 45 -21 97 -61 112 -14 6 -108 10 -210 10 l-184 0 -1 1243
c0 683 -2 1253 -5 1267 -2 14 -6 37 -8 51 -6 44 -55 135 -98 184 -53 60 -128
109 -201 130 -227 66 -412 -30 -521 -270 -32 -71 -57 -100 -111 -128 -40 -21
-47 -21 -772 -22 -403 0 -733 3 -733 7 0 4 9 8 21 8 25 0 174 37 197 50 9 4
42 20 72 35 115 56 165 133 158 244 -2 51 -1 60 12 55 91 -40 182 -48 295 -26
97 18 115 22 205 38 47 9 88 21 92 27 22 35 6 53 -134 152 -78 55 -158 110
-177 121 -60 36 -132 52 -220 50 -74 -3 -80 -1 -67 13 7 9 25 40 40 68 38 76
46 175 25 289 -10 49 -25 133 -34 187 -22 125 -47 154 -92 105z"/>
</g>
</svg>
